<svg id="uuid-89df5a46-5e43-4663-901a-4db19a99b3ad" xmlns="http://www.w3.org/2000/svg"
    viewBox="0 0 13.5 19.01">
    <defs>
        <style>
            .uuid-93d52b8b-89d3-429c-aa42-3cbf0ed23b41{fill:#009ee3;}.uuid-296cc761-f131-4181-98a0-a5c61b36e4ee{fill:none;stroke:#2b4281;stroke-width:.81px;}.uuid-0d528eb8-8589-40de-b5bd-179ff9fd2ed0{fill:#fff;stroke:#ce000f;stroke-miterlimit:10;stroke-width:.17px;}</style>
    </defs>
    <g id="uuid-5ea23133-ec6e-4e42-9360-810134edf18f">
        <path id="uuid-c6c5ada9-4151-4c1b-bb4f-5e4118a78323"
            class="uuid-0d528eb8-8589-40de-b5bd-179ff9fd2ed0"
            d="m12.97,5.64C12.37,2.2,9.1-.1,5.67.5c-.79.14-1.54.42-2.22.84C1.43,2.6.46,4.46.41,6.96c.03.26.05.65.1,1.03.18.97.54,1.89,1.07,2.72,1.48,2.6,3.1,5.11,4.72,7.62.12.24.42.34.66.22.1-.05.17-.13.22-.22.49-.76.99-1.51,1.46-2.28,1.23-2.02,2.46-4.03,3.64-6.07.74-1.32.98-2.86.68-4.34" />
        <g id="uuid-71b92365-3751-48ea-80e4-d142bb9eb63d">
            <path class="uuid-93d52b8b-89d3-429c-aa42-3cbf0ed23b41"
                d="m2.84,12.11c.68,2.01,2.77,4,3.47,5.99.12.45.42.63.66.41.1-.09.17-.24.22-.42,1.65-2.44,3.46-5.4,3.65-5.98H2.84Z" />
        </g>
        <path id="uuid-fb668565-e553-402d-ab56-29f77af4021d"
            class="uuid-296cc761-f131-4181-98a0-a5c61b36e4ee"
            d="m12.97,5.64C12.37,2.2,9.1-.1,5.67.5c-.79.14-1.54.42-2.22.84C1.43,2.6.46,4.46.41,6.96c.03.26.05.65.1,1.03.18.97.54,1.89,1.07,2.72,1.48,2.6,3.1,5.11,4.72,7.62.12.24.42.34.66.22.1-.05.17-.13.22-.22.49-.76.99-1.51,1.46-2.28,1.23-2.02,2.46-4.03,3.64-6.07.74-1.32.98-2.86.68-4.34" />
    </g>
</svg>