<?xml version="1.0" encoding="UTF-8"?>
<svg id="uuid-e68de704-57f8-490d-a922-ac4b8b19eeaf" xmlns="http://www.w3.org/2000/svg"
    viewBox="0 0 13.5 19.01">
    <defs>
        <style>
            .uuid-228aa7ed-a93e-4dee-a7de-03f46789be65{fill:#fff;stroke:#ce000f;stroke-miterlimit:10;stroke-width:.17px;}.uuid-ed3b9f4f-d117-4516-be34-f52444fef8f4{fill:none;stroke:#2b4281;stroke-width:.81px;}.uuid-1d2fd778-70da-4a9e-962a-2eadb9734c3d{fill:#009ee3;}</style>
    </defs>
    <g id="uuid-bc815a2a-0a56-4d70-b8cd-b9a7ee0bc8dc">
        <g>
            <path id="uuid-a797f09b-e411-409f-8b78-49296aaf1043"
                class="uuid-228aa7ed-a93e-4dee-a7de-03f46789be65"
                d="m12.97,5.64C12.37,2.2,9.1-.1,5.67.5c-.79.14-1.54.42-2.22.84C1.43,2.6.46,4.46.41,6.96c.03.26.05.65.1,1.03.18.97.54,1.89,1.07,2.72,1.48,2.6,3.1,5.11,4.72,7.62.12.24.42.34.66.22.1-.05.17-.13.22-.22.49-.76.99-1.51,1.46-2.28,1.23-2.02,2.46-4.03,3.64-6.07.74-1.32.98-2.86.68-4.34" />
            <g id="uuid-6bf3a5d4-9909-4f52-a1dd-f3ca1e679e37">
                <path class="uuid-1d2fd778-70da-4a9e-962a-2eadb9734c3d"
                    d="m4.23,15.11c.68,1.08,1.38,2.15,2.07,3.23.12.24.42.34.66.22.1-.05.17-.13.22-.22.49-.76.99-1.51,1.46-2.28.19-.31.38-.63.57-.94h-4.99Z" />
            </g>
            <path id="uuid-f4d648a6-c012-4461-ba97-1dd1b6b0044a"
                class="uuid-ed3b9f4f-d117-4516-be34-f52444fef8f4"
                d="m12.97,5.64C12.37,2.2,9.1-.1,5.67.5c-.79.14-1.54.42-2.22.84C1.43,2.6.46,4.46.41,6.96c.03.26.05.65.1,1.03.18.97.54,1.89,1.07,2.72,1.48,2.6,3.1,5.11,4.72,7.62.12.24.42.34.66.22.1-.05.17-.13.22-.22.49-.76.99-1.51,1.46-2.28,1.23-2.02,2.46-4.03,3.64-6.07.74-1.32.98-2.86.68-4.34" />
        </g>
    </g>
</svg>