<svg id="uuid-8ce86d14-e367-43db-bf5c-d073d42622a3" xmlns="http://www.w3.org/2000/svg"
    viewBox="0 0 13.5 19.01">
    <defs>
        <style>
            .uuid-345ddffd-388f-4539-9ace-dbed39b7fdc8{fill:#009ee3;}.uuid-565f214b-7706-46d1-abc1-9a6ad52ebabe{fill:none;stroke:#2b4281;stroke-width:.81px;}.uuid-9ec2d187-5fc2-4a7d-919c-868dd1b059f2{fill:#fff;stroke:#ce000f;stroke-miterlimit:10;stroke-width:.17px;}</style>
    </defs>
    <g id="uuid-2b90c0bd-6f53-4765-891f-3e8fb91d36c7">
        <g id="uuid-649bec61-adf1-4427-84ca-9aa00007904b">
            <path id="uuid-3da511d6-ac0c-4d29-ab99-4b2da2b33bb3"
                class="uuid-9ec2d187-5fc2-4a7d-919c-868dd1b059f2"
                d="m12.97,5.64C12.37,2.2,9.11-.1,5.67.5c-.79.14-1.54.42-2.22.84C1.43,2.6.46,4.47.41,6.96c.03.26.05.65.1,1.03.18.97.54,1.89,1.07,2.72,1.48,2.6,3.1,5.11,4.72,7.62.12.24.42.34.66.22.1-.05.17-.13.22-.22.49-.76,1-1.51,1.46-2.28,1.23-2.02,2.46-4.03,3.64-6.07.74-1.32.98-2.86.68-4.34" />
            <path id="uuid-0fd304b7-2958-43a8-93ac-c3c8b6ee6db6"
                class="uuid-345ddffd-388f-4539-9ace-dbed39b7fdc8"
                d="m.73,8.19h12.12l-2.02,5-4.08,5.36-3.92-6.36S.15,9.15.73,8.19Z" />
            <path id="uuid-9fec4daf-87fb-4d10-9af5-c029f1f95079"
                class="uuid-565f214b-7706-46d1-abc1-9a6ad52ebabe"
                d="m12.97,5.64C12.37,2.2,9.11-.1,5.67.5c-.79.14-1.54.42-2.22.84C1.43,2.6.46,4.47.41,6.96c.03.26.05.65.1,1.03.18.97.54,1.89,1.07,2.72,1.48,2.6,3.1,5.11,4.72,7.62.12.24.42.34.66.22.1-.05.17-.13.22-.22.49-.76,1-1.51,1.46-2.28,1.23-2.02,2.46-4.03,3.64-6.07.74-1.32.98-2.86.68-4.34" />
        </g>
    </g>
</svg>