<?xml version="1.0" encoding="UTF-8"?>
<svg id="uuid-f898793f-f4d3-40ed-96b7-59e4aef3f6b7" xmlns="http://www.w3.org/2000/svg"
    viewBox="0 0 13.5 19.01">
    <defs>
        <style>
            .uuid-3380b189-38f5-45e0-b98a-83c7934e6d3d{fill:#fff;stroke:#ce000f;stroke-miterlimit:10;stroke-width:.17px;}.uuid-3454f160-20a8-4fa3-906b-b83eb8b70b3f{fill:none;stroke:#2b4281;stroke-width:.81px;}.uuid-58bef64a-cc5c-4d25-8677-1e2dbd7a6548{fill:#009ee3;}</style>
    </defs>
    <g id="uuid-6165d95a-8bd6-4323-aa9d-da64d62be9da">
        <g id="uuid-8c09fa85-9259-4bbc-8de5-f76f4fe94a08">
            <path id="uuid-f79d353d-f641-4dbe-bae0-805770fde3e2"
                class="uuid-3380b189-38f5-45e0-b98a-83c7934e6d3d"
                d="m12.97,5.64C12.37,2.2,9.11-.1,5.67.5c-.79.14-1.54.42-2.22.84C1.43,2.6.46,4.47.41,6.96c.03.26.05.65.1,1.03.18.97.54,1.89,1.07,2.72,1.48,2.6,3.1,5.11,4.72,7.62.12.24.42.34.66.22.1-.05.17-.13.22-.22.49-.76,1-1.51,1.46-2.28,1.23-2.02,2.46-4.03,3.64-6.07.74-1.32.98-2.86.68-4.34" />
            <path id="uuid-486e99b1-02b7-4391-8cd3-c3e2af1adc99"
                class="uuid-58bef64a-cc5c-4d25-8677-1e2dbd7a6548"
                d="m.73,9.5h12.12l-6.1,9.05L.73,9.5Z" />
            <path id="uuid-d6f72c04-68dc-4931-958d-be26b8f189b3"
                class="uuid-3454f160-20a8-4fa3-906b-b83eb8b70b3f"
                d="m12.97,5.64C12.37,2.2,9.11-.1,5.67.5c-.79.14-1.54.42-2.22.84C1.43,2.6.46,4.47.41,6.96c.03.26.05.65.1,1.03.18.97.54,1.89,1.07,2.72,1.48,2.6,3.1,5.11,4.72,7.62.12.24.42.34.66.22.1-.05.17-.13.22-.22.49-.76,1-1.51,1.46-2.28,1.23-2.02,2.46-4.03,3.64-6.07.74-1.32.98-2.86.68-4.34" />
        </g>
    </g>
</svg>